<svg width="333" height="155" viewBox="0 0 333 155" fill="none" xmlns="http://www.w3.org/2000/svg">
<rect x="1" y="0.5" width="331" height="154" rx="7.5" fill="white"/>
<rect x="1" y="0.5" width="331" height="154" rx="7.5" stroke="#D5D5D5" stroke-dasharray="6 6"/>
<g clip-path="url(#clip0_91_115)">
<path d="M161.5 63C160.252 63 159.056 62.5258 158.173 61.6819C157.291 60.838 156.795 59.6934 156.795 58.5C156.795 57.3065 157.291 56.1619 158.173 55.318C159.056 54.4741 160.252 54 161.5 54C161.795 52.6871 162.657 51.5334 163.897 50.7927C164.51 50.4259 165.199 50.1715 165.922 50.0441C166.645 49.9166 167.389 49.9186 168.111 50.05C168.833 50.1813 169.52 50.4393 170.131 50.8094C170.743 51.1795 171.267 51.6544 171.675 52.2069C172.082 52.7594 172.365 53.3787 172.506 54.0295C172.648 54.6804 172.646 55.3499 172.5 56H173.5C174.428 56 175.318 56.3687 175.975 57.0251C176.631 57.6815 177 58.5717 177 59.5C177 60.4282 176.631 61.3184 175.975 61.9748C175.318 62.6312 174.428 63 173.5 63H172.5" stroke="#ADADAD" stroke-width="2" stroke-linecap="round" stroke-linejoin="round"/>
<path d="M163.5 60L166.5 57L169.5 60" stroke="#ADADAD" stroke-width="2" stroke-linecap="round" stroke-linejoin="round"/>
<path d="M166.5 57V66" stroke="#ADADAD" stroke-width="2" stroke-linecap="round" stroke-linejoin="round"/>
</g>
<path d="M14.688 98.416C14.688 97.328 14.9333 96.352 15.424 95.488C15.9147 94.6133 16.5813 93.9307 17.424 93.44C18.2773 92.9493 19.2213 92.704 20.256 92.704C21.472 92.704 22.5333 92.9973 23.44 93.584C24.3467 94.1707 25.008 95.0027 25.424 96.08H23.68C23.3707 95.408 22.9227 94.8907 22.336 94.528C21.76 94.1653 21.0667 93.984 20.256 93.984C19.4773 93.984 18.7787 94.1653 18.16 94.528C17.5413 94.8907 17.056 95.408 16.704 96.08C16.352 96.7413 16.176 97.52 16.176 98.416C16.176 99.3013 16.352 100.08 16.704 100.752C17.056 101.413 17.5413 101.925 18.16 102.288C18.7787 102.651 19.4773 102.832 20.256 102.832C21.0667 102.832 21.76 102.656 22.336 102.304C22.9227 101.941 23.3707 101.424 23.68 100.752H25.424C25.008 101.819 24.3467 102.645 23.44 103.232C22.5333 103.808 21.472 104.096 20.256 104.096C19.2213 104.096 18.2773 103.856 17.424 103.376C16.5813 102.885 15.9147 102.208 15.424 101.344C14.9333 100.48 14.688 99.504 14.688 98.416ZM29.0474 92.16V104H27.5914V92.16H29.0474ZM32.2809 93.808C32.0035 93.808 31.7689 93.712 31.5769 93.52C31.3849 93.328 31.2889 93.0933 31.2889 92.816C31.2889 92.5387 31.3849 92.304 31.5769 92.112C31.7689 91.92 32.0035 91.824 32.2809 91.824C32.5475 91.824 32.7715 91.92 32.9529 92.112C33.1449 92.304 33.2409 92.5387 33.2409 92.816C33.2409 93.0933 33.1449 93.328 32.9529 93.52C32.7715 93.712 32.5475 93.808 32.2809 93.808ZM32.9849 95.232V104H31.5289V95.232H32.9849ZM34.9224 99.6C34.9224 98.6933 35.1037 97.904 35.4664 97.232C35.829 96.5493 36.3304 96.0213 36.9704 95.648C37.621 95.2747 38.3624 95.088 39.1944 95.088C40.2717 95.088 41.157 95.3493 41.8504 95.872C42.5544 96.3947 43.0184 97.12 43.2424 98.048H41.6744C41.525 97.5147 41.2317 97.0933 40.7944 96.784C40.3677 96.4747 39.8344 96.32 39.1944 96.32C38.3624 96.32 37.6904 96.608 37.1784 97.184C36.6664 97.7493 36.4104 98.5547 36.4104 99.6C36.4104 100.656 36.6664 101.472 37.1784 102.048C37.6904 102.624 38.3624 102.912 39.1944 102.912C39.8344 102.912 40.3677 102.763 40.7944 102.464C41.221 102.165 41.5144 101.739 41.6744 101.184H43.2424C43.0077 102.08 42.5384 102.8 41.8344 103.344C41.1304 103.877 40.2504 104.144 39.1944 104.144C38.3624 104.144 37.621 103.957 36.9704 103.584C36.3304 103.211 35.829 102.683 35.4664 102C35.1037 101.317 34.9224 100.517 34.9224 99.6ZM50.0811 104L46.6411 100.128V104H45.1851V92.16H46.6411V99.12L50.0171 95.232H52.0491L47.9211 99.6L52.0651 104H50.0811ZM61.5091 104.144C60.6878 104.144 59.9411 103.957 59.2691 103.584C58.6078 103.211 58.0851 102.683 57.7011 102C57.3278 101.307 57.1411 100.507 57.1411 99.6C57.1411 98.704 57.3331 97.9147 57.7171 97.232C58.1118 96.5387 58.6451 96.0107 59.3171 95.648C59.9891 95.2747 60.7411 95.088 61.5731 95.088C62.4051 95.088 63.1571 95.2747 63.8291 95.648C64.5011 96.0107 65.0291 96.5333 65.4131 97.216C65.8078 97.8987 66.0051 98.6933 66.0051 99.6C66.0051 100.507 65.8025 101.307 65.3971 102C65.0025 102.683 64.4638 103.211 63.7811 103.584C63.0985 103.957 62.3411 104.144 61.5091 104.144ZM61.5091 102.864C62.0318 102.864 62.5225 102.741 62.9811 102.496C63.4398 102.251 63.8078 101.883 64.0851 101.392C64.3731 100.901 64.5171 100.304 64.5171 99.6C64.5171 98.896 64.3785 98.2987 64.1011 97.808C63.8238 97.3173 63.4611 96.9547 63.0131 96.72C62.5651 96.4747 62.0798 96.352 61.5571 96.352C61.0238 96.352 60.5331 96.4747 60.0851 96.72C59.6478 96.9547 59.2958 97.3173 59.0291 97.808C58.7625 98.2987 58.6291 98.896 58.6291 99.6C58.6291 100.315 58.7571 100.917 59.0131 101.408C59.2798 101.899 59.6318 102.267 60.0691 102.512C60.5065 102.747 60.9865 102.864 61.5091 102.864ZM69.3755 96.656C69.6315 96.1547 69.9942 95.7653 70.4635 95.488C70.9435 95.2107 71.5248 95.072 72.2075 95.072V96.576H71.8235C70.1915 96.576 69.3755 97.4613 69.3755 99.232V104H67.9195V95.232H69.3755V96.656ZM77.6099 99.584C77.6099 98.688 77.7912 97.904 78.1539 97.232C78.5165 96.5493 79.0125 96.0213 79.6419 95.648C80.2819 95.2747 80.9965 95.088 81.7859 95.088C82.4685 95.088 83.1032 95.248 83.6899 95.568C84.2765 95.8773 84.7245 96.288 85.0339 96.8V92.16H86.5059V104H85.0339V102.352C84.7459 102.875 84.3192 103.307 83.7539 103.648C83.1885 103.979 82.5272 104.144 81.7699 104.144C80.9912 104.144 80.2819 103.952 79.6419 103.568C79.0125 103.184 78.5165 102.645 78.1539 101.952C77.7912 101.259 77.6099 100.469 77.6099 99.584ZM85.0339 99.6C85.0339 98.9387 84.9005 98.3627 84.6339 97.872C84.3672 97.3813 84.0045 97.008 83.5459 96.752C83.0979 96.4853 82.6019 96.352 82.0579 96.352C81.5139 96.352 81.0179 96.48 80.5699 96.736C80.1219 96.992 79.7645 97.3653 79.4979 97.856C79.2312 98.3467 79.0979 98.9227 79.0979 99.584C79.0979 100.256 79.2312 100.843 79.4979 101.344C79.7645 101.835 80.1219 102.213 80.5699 102.48C81.0179 102.736 81.5139 102.864 82.0579 102.864C82.6019 102.864 83.0979 102.736 83.5459 102.48C84.0045 102.213 84.3672 101.835 84.6339 101.344C84.9005 100.843 85.0339 100.261 85.0339 99.6ZM90.4224 96.656C90.6784 96.1547 91.041 95.7653 91.5104 95.488C91.9904 95.2107 92.5717 95.072 93.2544 95.072V96.576H92.8704C91.2384 96.576 90.4224 97.4613 90.4224 99.232V104H88.9664V95.232H90.4224V96.656ZM94.3911 99.584C94.3911 98.688 94.5725 97.904 94.9351 97.232C95.2978 96.5493 95.7938 96.0213 96.4231 95.648C97.0631 95.2747 97.7725 95.088 98.5511 95.088C99.3191 95.088 99.9858 95.2533 100.551 95.584C101.116 95.9147 101.538 96.3307 101.815 96.832V95.232H103.287V104H101.815V102.368C101.527 102.88 101.095 103.307 100.519 103.648C99.9538 103.979 99.2925 104.144 98.5351 104.144C97.7565 104.144 97.0525 103.952 96.4231 103.568C95.7938 103.184 95.2978 102.645 94.9351 101.952C94.5725 101.259 94.3911 100.469 94.3911 99.584ZM101.815 99.6C101.815 98.9387 101.682 98.3627 101.415 97.872C101.148 97.3813 100.786 97.008 100.327 96.752C99.8791 96.4853 99.3831 96.352 98.8391 96.352C98.2951 96.352 97.7991 96.48 97.3511 96.736C96.9031 96.992 96.5458 97.3653 96.2791 97.856C96.0125 98.3467 95.8791 98.9227 95.8791 99.584C95.8791 100.256 96.0125 100.843 96.2791 101.344C96.5458 101.835 96.9031 102.213 97.3511 102.48C97.7991 102.736 98.2951 102.864 98.8391 102.864C99.3831 102.864 99.8791 102.736 100.327 102.48C100.786 102.213 101.148 101.835 101.415 101.344C101.682 100.843 101.815 100.261 101.815 99.6ZM109.364 95.088C110.121 95.088 110.782 95.2533 111.348 95.584C111.924 95.9147 112.35 96.3307 112.628 96.832V95.232H114.1V104.192C114.1 104.992 113.929 105.701 113.588 106.32C113.246 106.949 112.756 107.44 112.116 107.792C111.486 108.144 110.75 108.32 109.908 108.32C108.756 108.32 107.796 108.048 107.028 107.504C106.26 106.96 105.806 106.219 105.668 105.28H107.108C107.268 105.813 107.598 106.24 108.1 106.56C108.601 106.891 109.204 107.056 109.908 107.056C110.708 107.056 111.358 106.805 111.86 106.304C112.372 105.803 112.628 105.099 112.628 104.192V102.352C112.34 102.864 111.913 103.291 111.348 103.632C110.782 103.973 110.121 104.144 109.364 104.144C108.585 104.144 107.876 103.952 107.236 103.568C106.606 103.184 106.11 102.645 105.748 101.952C105.385 101.259 105.204 100.469 105.204 99.584C105.204 98.688 105.385 97.904 105.748 97.232C106.11 96.5493 106.606 96.0213 107.236 95.648C107.876 95.2747 108.585 95.088 109.364 95.088ZM112.628 99.6C112.628 98.9387 112.494 98.3627 112.228 97.872C111.961 97.3813 111.598 97.008 111.14 96.752C110.692 96.4853 110.196 96.352 109.652 96.352C109.108 96.352 108.612 96.48 108.164 96.736C107.716 96.992 107.358 97.3653 107.092 97.856C106.825 98.3467 106.692 98.9227 106.692 99.584C106.692 100.256 106.825 100.843 107.092 101.344C107.358 101.835 107.716 102.213 108.164 102.48C108.612 102.736 109.108 102.864 109.652 102.864C110.196 102.864 110.692 102.736 111.14 102.48C111.598 102.213 111.961 101.835 112.228 101.344C112.494 100.843 112.628 100.261 112.628 99.6ZM124.394 96.432H122.554V104H121.098V96.432H119.962V95.232H121.098V94.608C121.098 93.6267 121.348 92.912 121.85 92.464C122.362 92.0053 123.178 91.776 124.298 91.776V92.992C123.658 92.992 123.204 93.12 122.938 93.376C122.682 93.6213 122.554 94.032 122.554 94.608V95.232H124.394V96.432ZM126.843 93.808C126.566 93.808 126.331 93.712 126.139 93.52C125.947 93.328 125.851 93.0933 125.851 92.816C125.851 92.5387 125.947 92.304 126.139 92.112C126.331 91.92 126.566 91.824 126.843 91.824C127.11 91.824 127.334 91.92 127.515 92.112C127.707 92.304 127.803 92.5387 127.803 92.816C127.803 93.0933 127.707 93.328 127.515 93.52C127.334 93.712 127.11 93.808 126.843 93.808ZM127.547 95.232V104H126.091V95.232H127.547ZM131.485 92.16V104H130.029V92.16H131.485ZM141.966 99.28C141.966 99.5573 141.95 99.8507 141.918 100.16H134.91C134.964 101.024 135.257 101.701 135.79 102.192C136.334 102.672 136.99 102.912 137.758 102.912C138.388 102.912 138.91 102.768 139.326 102.48C139.753 102.181 140.052 101.787 140.222 101.296H141.79C141.556 102.139 141.086 102.827 140.382 103.36C139.678 103.883 138.804 104.144 137.758 104.144C136.926 104.144 136.18 103.957 135.518 103.584C134.868 103.211 134.356 102.683 133.982 102C133.609 101.307 133.422 100.507 133.422 99.6C133.422 98.6933 133.604 97.8987 133.966 97.216C134.329 96.5333 134.836 96.0107 135.486 95.648C136.148 95.2747 136.905 95.088 137.758 95.088C138.59 95.088 139.326 95.2693 139.966 95.632C140.606 95.9947 141.097 96.496 141.438 97.136C141.79 97.7653 141.966 98.48 141.966 99.28ZM140.462 98.976C140.462 98.4213 140.34 97.9467 140.094 97.552C139.849 97.1467 139.513 96.8427 139.086 96.64C138.67 96.4267 138.206 96.32 137.694 96.32C136.958 96.32 136.329 96.5547 135.806 97.024C135.294 97.4933 135.001 98.144 134.926 98.976H140.462ZM149.93 96.432V101.6C149.93 102.027 150.021 102.331 150.202 102.512C150.383 102.683 150.698 102.768 151.146 102.768H152.218V104H150.906C150.095 104 149.487 103.813 149.082 103.44C148.677 103.067 148.474 102.453 148.474 101.6V96.432H147.338V95.232H148.474V93.024H149.93V95.232H152.218V96.432H149.93ZM157.806 104.144C156.985 104.144 156.238 103.957 155.566 103.584C154.905 103.211 154.382 102.683 153.998 102C153.625 101.307 153.438 100.507 153.438 99.6C153.438 98.704 153.63 97.9147 154.014 97.232C154.409 96.5387 154.942 96.0107 155.614 95.648C156.286 95.2747 157.038 95.088 157.87 95.088C158.702 95.088 159.454 95.2747 160.126 95.648C160.798 96.0107 161.326 96.5333 161.71 97.216C162.105 97.8987 162.302 98.6933 162.302 99.6C162.302 100.507 162.099 101.307 161.694 102C161.299 102.683 160.761 103.211 160.078 103.584C159.395 103.957 158.638 104.144 157.806 104.144ZM157.806 102.864C158.329 102.864 158.819 102.741 159.278 102.496C159.737 102.251 160.105 101.883 160.382 101.392C160.67 100.901 160.814 100.304 160.814 99.6C160.814 98.896 160.675 98.2987 160.398 97.808C160.121 97.3173 159.758 96.9547 159.31 96.72C158.862 96.4747 158.377 96.352 157.854 96.352C157.321 96.352 156.83 96.4747 156.382 96.72C155.945 96.9547 155.593 97.3173 155.326 97.808C155.059 98.2987 154.926 98.896 154.926 99.6C154.926 100.315 155.054 100.917 155.31 101.408C155.577 101.899 155.929 102.267 156.366 102.512C156.803 102.747 157.283 102.864 157.806 102.864ZM170.258 96.432V101.6C170.258 102.027 170.349 102.331 170.53 102.512C170.711 102.683 171.026 102.768 171.474 102.768H172.546V104H171.234C170.423 104 169.815 103.813 169.41 103.44C169.005 103.067 168.802 102.453 168.802 101.6V96.432H167.666V95.232H168.802V93.024H170.258V95.232H172.546V96.432H170.258ZM178.662 95.072C179.323 95.072 179.921 95.216 180.454 95.504C180.987 95.7813 181.403 96.2027 181.702 96.768C182.011 97.3333 182.166 98.0213 182.166 98.832V104H180.726V99.04C180.726 98.1653 180.507 97.4987 180.07 97.04C179.633 96.5707 179.035 96.336 178.278 96.336C177.51 96.336 176.897 96.576 176.438 97.056C175.99 97.536 175.766 98.2347 175.766 99.152V104H174.31V92.16H175.766V96.48C176.054 96.032 176.449 95.6853 176.95 95.44C177.462 95.1947 178.033 95.072 178.662 95.072ZM185.297 93.808C185.019 93.808 184.785 93.712 184.593 93.52C184.401 93.328 184.305 93.0933 184.305 92.816C184.305 92.5387 184.401 92.304 184.593 92.112C184.785 91.92 185.019 91.824 185.297 91.824C185.563 91.824 185.787 91.92 185.969 92.112C186.161 92.304 186.257 92.5387 186.257 92.816C186.257 93.0933 186.161 93.328 185.969 93.52C185.787 93.712 185.563 93.808 185.297 93.808ZM186.001 95.232V104H184.545V95.232H186.001ZM191.586 104.144C190.914 104.144 190.311 104.032 189.778 103.808C189.245 103.573 188.823 103.253 188.514 102.848C188.205 102.432 188.034 101.957 188.002 101.424H189.506C189.549 101.861 189.751 102.219 190.114 102.496C190.487 102.773 190.973 102.912 191.57 102.912C192.125 102.912 192.562 102.789 192.882 102.544C193.202 102.299 193.362 101.989 193.362 101.616C193.362 101.232 193.191 100.949 192.85 100.768C192.509 100.576 191.981 100.389 191.266 100.208C190.615 100.037 190.082 99.8667 189.666 99.696C189.261 99.5147 188.909 99.2533 188.61 98.912C188.322 98.56 188.178 98.1013 188.178 97.536C188.178 97.088 188.311 96.6773 188.578 96.304C188.845 95.9307 189.223 95.6373 189.714 95.424C190.205 95.2 190.765 95.088 191.394 95.088C192.365 95.088 193.149 95.3333 193.746 95.824C194.343 96.3147 194.663 96.9867 194.706 97.84H193.25C193.218 97.3813 193.031 97.0133 192.69 96.736C192.359 96.4587 191.911 96.32 191.346 96.32C190.823 96.32 190.407 96.432 190.098 96.656C189.789 96.88 189.634 97.1733 189.634 97.536C189.634 97.824 189.725 98.064 189.906 98.256C190.098 98.4373 190.333 98.5867 190.61 98.704C190.898 98.8107 191.293 98.9333 191.794 99.072C192.423 99.2427 192.935 99.4133 193.33 99.584C193.725 99.744 194.061 99.9893 194.338 100.32C194.626 100.651 194.775 101.083 194.786 101.616C194.786 102.096 194.653 102.528 194.386 102.912C194.119 103.296 193.741 103.6 193.25 103.824C192.77 104.037 192.215 104.144 191.586 104.144ZM200.563 99.584C200.563 98.688 200.744 97.904 201.107 97.232C201.47 96.5493 201.966 96.0213 202.595 95.648C203.235 95.2747 203.944 95.088 204.723 95.088C205.491 95.088 206.158 95.2533 206.723 95.584C207.288 95.9147 207.71 96.3307 207.987 96.832V95.232H209.459V104H207.987V102.368C207.699 102.88 207.267 103.307 206.691 103.648C206.126 103.979 205.464 104.144 204.707 104.144C203.928 104.144 203.224 103.952 202.595 103.568C201.966 103.184 201.47 102.645 201.107 101.952C200.744 101.259 200.563 100.469 200.563 99.584ZM207.987 99.6C207.987 98.9387 207.854 98.3627 207.587 97.872C207.32 97.3813 206.958 97.008 206.499 96.752C206.051 96.4853 205.555 96.352 205.011 96.352C204.467 96.352 203.971 96.48 203.523 96.736C203.075 96.992 202.718 97.3653 202.451 97.856C202.184 98.3467 202.051 98.9227 202.051 99.584C202.051 100.256 202.184 100.843 202.451 101.344C202.718 101.835 203.075 102.213 203.523 102.48C203.971 102.736 204.467 102.864 205.011 102.864C205.555 102.864 206.051 102.736 206.499 102.48C206.958 102.213 207.32 101.835 207.587 101.344C207.854 100.843 207.987 100.261 207.987 99.6ZM213.376 96.656C213.632 96.1547 213.994 95.7653 214.464 95.488C214.944 95.2107 215.525 95.072 216.208 95.072V96.576H215.824C214.192 96.576 213.376 97.4613 213.376 99.232V104H211.92V95.232H213.376V96.656ZM225.888 99.28C225.888 99.5573 225.872 99.8507 225.84 100.16H218.832C218.886 101.024 219.179 101.701 219.712 102.192C220.256 102.672 220.912 102.912 221.68 102.912C222.31 102.912 222.832 102.768 223.248 102.48C223.675 102.181 223.974 101.787 224.144 101.296H225.712C225.478 102.139 225.008 102.827 224.304 103.36C223.6 103.883 222.726 104.144 221.68 104.144C220.848 104.144 220.102 103.957 219.44 103.584C218.79 103.211 218.278 102.683 217.904 102C217.531 101.307 217.344 100.507 217.344 99.6C217.344 98.6933 217.526 97.8987 217.888 97.216C218.251 96.5333 218.758 96.0107 219.408 95.648C220.07 95.2747 220.827 95.088 221.68 95.088C222.512 95.088 223.248 95.2693 223.888 95.632C224.528 95.9947 225.019 96.496 225.36 97.136C225.712 97.7653 225.888 98.48 225.888 99.28ZM224.384 98.976C224.384 98.4213 224.262 97.9467 224.016 97.552C223.771 97.1467 223.435 96.8427 223.008 96.64C222.592 96.4267 222.128 96.32 221.616 96.32C220.88 96.32 220.251 96.5547 219.728 97.024C219.216 97.4933 218.923 98.144 218.848 98.976H224.384ZM227.266 99.584C227.266 98.688 227.447 97.904 227.81 97.232C228.173 96.5493 228.669 96.0213 229.298 95.648C229.938 95.2747 230.647 95.088 231.426 95.088C232.194 95.088 232.861 95.2533 233.426 95.584C233.991 95.9147 234.413 96.3307 234.69 96.832V95.232H236.162V104H234.69V102.368C234.402 102.88 233.97 103.307 233.394 103.648C232.829 103.979 232.167 104.144 231.41 104.144C230.631 104.144 229.927 103.952 229.298 103.568C228.669 103.184 228.173 102.645 227.81 101.952C227.447 101.259 227.266 100.469 227.266 99.584ZM234.69 99.6C234.69 98.9387 234.557 98.3627 234.29 97.872C234.023 97.3813 233.661 97.008 233.202 96.752C232.754 96.4853 232.258 96.352 231.714 96.352C231.17 96.352 230.674 96.48 230.226 96.736C229.778 96.992 229.421 97.3653 229.154 97.856C228.887 98.3467 228.754 98.9227 228.754 99.584C228.754 100.256 228.887 100.843 229.154 101.344C229.421 101.835 229.778 102.213 230.226 102.48C230.674 102.736 231.17 102.864 231.714 102.864C232.258 102.864 232.754 102.736 233.202 102.48C233.661 102.213 234.023 101.835 234.29 101.344C234.557 100.843 234.69 100.261 234.69 99.6ZM244.664 96.432V101.6C244.664 102.027 244.755 102.331 244.936 102.512C245.118 102.683 245.432 102.768 245.88 102.768H246.952V104H245.64C244.83 104 244.222 103.813 243.816 103.44C243.411 103.067 243.208 102.453 243.208 101.6V96.432H242.072V95.232H243.208V93.024H244.664V95.232H246.952V96.432H244.664ZM252.54 104.144C251.719 104.144 250.972 103.957 250.3 103.584C249.639 103.211 249.116 102.683 248.732 102C248.359 101.307 248.172 100.507 248.172 99.6C248.172 98.704 248.364 97.9147 248.748 97.232C249.143 96.5387 249.676 96.0107 250.348 95.648C251.02 95.2747 251.772 95.088 252.604 95.088C253.436 95.088 254.188 95.2747 254.86 95.648C255.532 96.0107 256.06 96.5333 256.444 97.216C256.839 97.8987 257.036 98.6933 257.036 99.6C257.036 100.507 256.834 101.307 256.428 102C256.034 102.683 255.495 103.211 254.812 103.584C254.13 103.957 253.372 104.144 252.54 104.144ZM252.54 102.864C253.063 102.864 253.554 102.741 254.012 102.496C254.471 102.251 254.839 101.883 255.116 101.392C255.404 100.901 255.548 100.304 255.548 99.6C255.548 98.896 255.41 98.2987 255.132 97.808C254.855 97.3173 254.492 96.9547 254.044 96.72C253.596 96.4747 253.111 96.352 252.588 96.352C252.055 96.352 251.564 96.4747 251.116 96.72C250.679 96.9547 250.327 97.3173 250.06 97.808C249.794 98.2987 249.66 98.896 249.66 99.6C249.66 100.315 249.788 100.917 250.044 101.408C250.311 101.899 250.663 102.267 251.1 102.512C251.538 102.747 252.018 102.864 252.54 102.864ZM270.992 95.232V104H269.536V102.704C269.259 103.152 268.87 103.504 268.368 103.76C267.878 104.005 267.334 104.128 266.736 104.128C266.054 104.128 265.44 103.989 264.896 103.712C264.352 103.424 263.92 102.997 263.6 102.432C263.291 101.867 263.136 101.179 263.136 100.368V95.232H264.576V100.176C264.576 101.04 264.795 101.707 265.232 102.176C265.67 102.635 266.267 102.864 267.024 102.864C267.803 102.864 268.416 102.624 268.864 102.144C269.312 101.664 269.536 100.965 269.536 100.048V95.232H270.992ZM274.907 96.848C275.195 96.3467 275.621 95.9307 276.187 95.6C276.763 95.2587 277.429 95.088 278.187 95.088C278.965 95.088 279.669 95.2747 280.299 95.648C280.939 96.0213 281.44 96.5493 281.803 97.232C282.165 97.904 282.347 98.688 282.347 99.584C282.347 100.469 282.165 101.259 281.803 101.952C281.44 102.645 280.939 103.184 280.299 103.568C279.669 103.952 278.965 104.144 278.187 104.144C277.44 104.144 276.779 103.979 276.203 103.648C275.637 103.307 275.205 102.885 274.907 102.384V108.16H273.451V95.232H274.907V96.848ZM280.859 99.584C280.859 98.9227 280.725 98.3467 280.459 97.856C280.192 97.3653 279.829 96.992 279.371 96.736C278.923 96.48 278.427 96.352 277.883 96.352C277.349 96.352 276.853 96.4853 276.395 96.752C275.947 97.008 275.584 97.3867 275.307 97.888C275.04 98.3787 274.907 98.9493 274.907 99.6C274.907 100.261 275.04 100.843 275.307 101.344C275.584 101.835 275.947 102.213 276.395 102.48C276.853 102.736 277.349 102.864 277.883 102.864C278.427 102.864 278.923 102.736 279.371 102.48C279.829 102.213 280.192 101.835 280.459 101.344C280.725 100.843 280.859 100.256 280.859 99.584ZM285.719 92.16V104H284.263V92.16H285.719ZM292.025 104.144C291.203 104.144 290.457 103.957 289.785 103.584C289.123 103.211 288.601 102.683 288.217 102C287.843 101.307 287.657 100.507 287.657 99.6C287.657 98.704 287.849 97.9147 288.233 97.232C288.627 96.5387 289.161 96.0107 289.833 95.648C290.505 95.2747 291.257 95.088 292.089 95.088C292.921 95.088 293.673 95.2747 294.345 95.648C295.017 96.0107 295.545 96.5333 295.929 97.216C296.323 97.8987 296.521 98.6933 296.521 99.6C296.521 100.507 296.318 101.307 295.913 102C295.518 102.683 294.979 103.211 294.297 103.584C293.614 103.957 292.857 104.144 292.025 104.144ZM292.025 102.864C292.547 102.864 293.038 102.741 293.497 102.496C293.955 102.251 294.323 101.883 294.601 101.392C294.889 100.901 295.033 100.304 295.033 99.6C295.033 98.896 294.894 98.2987 294.617 97.808C294.339 97.3173 293.977 96.9547 293.529 96.72C293.081 96.4747 292.595 96.352 292.073 96.352C291.539 96.352 291.049 96.4747 290.601 96.72C290.163 96.9547 289.811 97.3173 289.545 97.808C289.278 98.2987 289.145 98.896 289.145 99.6C289.145 100.315 289.273 100.917 289.529 101.408C289.795 101.899 290.147 102.267 290.585 102.512C291.022 102.747 291.502 102.864 292.025 102.864ZM297.891 99.584C297.891 98.688 298.072 97.904 298.435 97.232C298.798 96.5493 299.294 96.0213 299.923 95.648C300.563 95.2747 301.272 95.088 302.051 95.088C302.819 95.088 303.486 95.2533 304.051 95.584C304.616 95.9147 305.038 96.3307 305.315 96.832V95.232H306.787V104H305.315V102.368C305.027 102.88 304.595 103.307 304.019 103.648C303.454 103.979 302.792 104.144 302.035 104.144C301.256 104.144 300.552 103.952 299.923 103.568C299.294 103.184 298.798 102.645 298.435 101.952C298.072 101.259 297.891 100.469 297.891 99.584ZM305.315 99.6C305.315 98.9387 305.182 98.3627 304.915 97.872C304.648 97.3813 304.286 97.008 303.827 96.752C303.379 96.4853 302.883 96.352 302.339 96.352C301.795 96.352 301.299 96.48 300.851 96.736C300.403 96.992 300.046 97.3653 299.779 97.856C299.512 98.3467 299.379 98.9227 299.379 99.584C299.379 100.256 299.512 100.843 299.779 101.344C300.046 101.835 300.403 102.213 300.851 102.48C301.299 102.736 301.795 102.864 302.339 102.864C302.883 102.864 303.379 102.736 303.827 102.48C304.286 102.213 304.648 101.835 304.915 101.344C305.182 100.843 305.315 100.261 305.315 99.6ZM308.704 99.584C308.704 98.688 308.885 97.904 309.248 97.232C309.61 96.5493 310.106 96.0213 310.736 95.648C311.376 95.2747 312.09 95.088 312.88 95.088C313.562 95.088 314.197 95.248 314.784 95.568C315.37 95.8773 315.818 96.288 316.128 96.8V92.16H317.6V104H316.128V102.352C315.84 102.875 315.413 103.307 314.848 103.648C314.282 103.979 313.621 104.144 312.864 104.144C312.085 104.144 311.376 103.952 310.736 103.568C310.106 103.184 309.61 102.645 309.248 101.952C308.885 101.259 308.704 100.469 308.704 99.584ZM316.128 99.6C316.128 98.9387 315.994 98.3627 315.728 97.872C315.461 97.3813 315.098 97.008 314.64 96.752C314.192 96.4853 313.696 96.352 313.152 96.352C312.608 96.352 312.112 96.48 311.664 96.736C311.216 96.992 310.858 97.3653 310.592 97.856C310.325 98.3467 310.192 98.9227 310.192 99.584C310.192 100.256 310.325 100.843 310.592 101.344C310.858 101.835 311.216 102.213 311.664 102.48C312.112 102.736 312.608 102.864 313.152 102.864C313.696 102.864 314.192 102.736 314.64 102.48C315.098 102.213 315.461 101.835 315.728 101.344C315.994 100.843 316.128 100.261 316.128 99.6Z" fill="#ADADAD"/>
<defs>
<clipPath id="clip0_91_115">
<rect width="24" height="24" fill="white" transform="translate(154.5 45)"/>
</clipPath>
</defs>
</svg>
